<?xml version="1.0" encoding="UTF-8" standalone="no"?>
<!-- Created with Inkscape (http://www.inkscape.org/) -->

<svg
   width="210mm"
   height="297mm"
   viewBox="0 0 210 297"
   version="1.1"
   id="svg5"
   inkscape:version="1.2.1 (9c6d41e410, 2022-07-14)"
   sodipodi:docname="rajz-2.svg"
   xmlns:inkscape="http://www.inkscape.org/namespaces/inkscape"
   xmlns:sodipodi="http://sodipodi.sourceforge.net/DTD/sodipodi-0.dtd"
   xmlns="http://www.w3.org/2000/svg"
   xmlns:svg="http://www.w3.org/2000/svg">
  <sodipodi:namedview
     id="namedview7"
     pagecolor="#ffffff"
     bordercolor="#000000"
     borderopacity="0.25"
     inkscape:showpageshadow="2"
     inkscape:pageopacity="0.0"
     inkscape:pagecheckerboard="0"
     inkscape:deskcolor="#d1d1d1"
     inkscape:document-units="mm"
     showgrid="false"
     inkscape:zoom="1.6554513"
     inkscape:cx="264.88246"
     inkscape:cy="341.29667"
     inkscape:window-width="1600"
     inkscape:window-height="837"
     inkscape:window-x="-8"
     inkscape:window-y="-8"
     inkscape:window-maximized="1"
     inkscape:current-layer="layer1" />
  <defs
     id="defs2" />
  <g
     inkscape:label="Réteg 1"
     inkscape:groupmode="layer"
     id="layer1">
    <path
       id="path111"
       style="fill:#aa4400;stroke:#000000;stroke-width:5;stroke-dasharray:none;stroke-opacity:1"
       d="m 86.512129,97.304883 a 13.618151,7.1198626 0 0 0 -13.61829,7.119977 13.618151,7.1198626 0 0 0 13.61829,7.11946 13.618151,7.1198626 0 0 0 13.617781,-7.11946 13.618151,7.1198626 0 0 0 -13.617781,-7.119977 z m 28.366231,0.338997 a 13.618151,7.1198626 0 0 0 -13.61829,7.11998 13.618151,7.1198626 0 0 0 13.61829,7.11946 13.618151,7.1198626 0 0 0 13.61829,-7.11946 13.618151,7.1198626 0 0 0 -13.61829,-7.11998 z" />
    <path
       id="ellipse1658"
       style="fill:#aa4400;stroke:#000000;stroke-width:5;stroke-dasharray:none;stroke-opacity:1"
       d="m 86.737902,143.18824 a 13.618151,7.1198626 0 0 0 -13.618291,7.11998 13.618151,7.1198626 0 0 0 13.618291,7.11998 13.618151,7.1198626 0 0 0 10.849467,-2.8236 13.618151,7.1198626 0 0 1 -2.768824,-4.29638 13.618151,7.1198626 0 0 1 2.773475,-4.29948 13.618151,7.1198626 0 0 0 -10.854118,-2.8205 z" />
    <path
       style="fill:#aa4400;stroke:#000000;stroke-width:5;stroke-dasharray:none;stroke-opacity:1"
       d="m 113.97448,120.47268 a 13.618151,7.1198626 0 0 0 -13.37334,5.79138 13.618151,7.1198626 0 0 0 -13.185243,-5.33921 13.618151,7.1198626 0 0 0 -13.617773,7.11946 13.618151,7.1198626 0 0 0 13.617773,7.11998 13.618151,7.1198626 0 0 0 13.375923,-5.79964 13.618151,7.1198626 0 0 0 13.18266,5.34747 13.618151,7.1198626 0 0 0 13.61777,-7.11946 13.618151,7.1198626 0 0 0 -13.61777,-7.11998 z"
       id="ellipse1662" />
    <path
       id="path1690"
       style="fill:#aa4400;stroke:#000000;stroke-width:4.99999;stroke-dasharray:none;stroke-opacity:1"
       d="M 33.083769 55.459664 A 18.699583 10.069006 0 0 0 14.384135 65.5283 A 18.699583 10.069006 0 0 0 33.083769 75.597453 A 18.699583 10.069006 0 0 0 49.075041 70.746586 A 18.699583 10.069006 0 0 1 47.308223 66.487415 A 18.699583 10.069006 0 0 1 50.022786 61.263444 A 18.699583 10.069006 0 0 0 33.083769 55.459664 z M 50.022786 61.263444 A 18.699583 10.069006 0 0 1 51.783403 65.5283 A 18.699583 10.069006 0 0 1 49.075041 70.746586 A 18.699583 10.069006 0 0 0 66.007857 76.556567 A 18.699583 10.069006 0 0 0 84.707491 66.487415 A 18.699583 10.069006 0 0 0 66.007857 56.418262 A 18.699583 10.069006 0 0 0 50.022786 61.263444 z " />
    <ellipse
       style="fill:#aa4400;stroke:#000000;stroke-width:4.99999;stroke-dasharray:none;stroke-opacity:1"
       id="ellipse1699"
       cx="21.896095"
       cy="128.49971"
       rx="18.699583"
       ry="10.069006" />
    <ellipse
       style="fill:#aa4400;stroke:#000000;stroke-width:4.99999;stroke-dasharray:none;stroke-opacity:1"
       id="ellipse1701"
       cx="54.820148"
       cy="129.45866"
       rx="18.699583"
       ry="10.069006" />
    <path
       id="ellipse2434"
       style="fill:#0000ff;fill-opacity:1;stroke:#000000;stroke-width:4.99999;stroke-dasharray:none;stroke-opacity:1"
       d="m 49.862655,61.263265 a 18.699583,10.069006 0 0 0 -2.71405,5.22397 18.699583,10.069006 0 0 0 1.76682,4.259689 18.699583,10.069006 0 0 0 2.70836,-5.218287 18.699583,10.069006 0 0 0 -1.76113,-4.265372 z" />
  </g>
</svg>
