<?xml version="1.0" encoding="UTF-8" standalone="no"?>
<!-- Created with Inkscape (http://www.inkscape.org/) -->

<svg
   width="210mm"
   height="297mm"
   viewBox="0 0 210 297"
   version="1.1"
   id="svg2517"
   inkscape:version="1.2.1 (9c6d41e410, 2022-07-14)"
   sodipodi:docname="rajz-1.svg"
   xmlns:inkscape="http://www.inkscape.org/namespaces/inkscape"
   xmlns:sodipodi="http://sodipodi.sourceforge.net/DTD/sodipodi-0.dtd"
   xmlns="http://www.w3.org/2000/svg"
   xmlns:svg="http://www.w3.org/2000/svg">
  <sodipodi:namedview
     id="namedview2519"
     pagecolor="#ffffff"
     bordercolor="#000000"
     borderopacity="0.25"
     inkscape:showpageshadow="2"
     inkscape:pageopacity="0.0"
     inkscape:pagecheckerboard="0"
     inkscape:deskcolor="#d1d1d1"
     inkscape:document-units="mm"
     showgrid="false"
     inkscape:zoom="1.6554513"
     inkscape:cx="336.16212"
     inkscape:cy="314.11375"
     inkscape:window-width="1600"
     inkscape:window-height="837"
     inkscape:window-x="-8"
     inkscape:window-y="-8"
     inkscape:window-maximized="1"
     inkscape:current-layer="layer1" />
  <defs
     id="defs2514" />
  <g
     inkscape:label="Réteg 1"
     inkscape:groupmode="layer"
     id="layer1">
    <path
       id="path11733"
       style="fill:#ff0000;fill-opacity:1;stroke:#c70312;stroke-width:0;stroke-dasharray:none;stroke-opacity:1"
       d="m 145.68078,48.267489 a 18.939322,18.140194 0 0 0 -18.93941,18.139978 18.939322,18.140194 0 0 0 18.93941,18.13997 18.939322,18.140194 0 0 0 18.93942,-18.13997 18.939322,18.140194 0 0 0 -18.93942,-18.139978 z m 0.31265,3.18895 c 1.66141,0.0078 3.25362,0.288788 4.83278,0.808738 2.59375,0.87105 5.02714,2.41684 6.88692,4.49068 3.0473,3.28561 4.31876,8.0411 3.43441,12.42095 -1.04166,5.55342 -5.59654,10.09959 -10.99933,11.54555 -5.82434,1.74118 -12.56398,-0.15554 -16.55506,-4.75527 -3.32912,-3.64773 -4.47698,-9.06237 -3.01325,-13.76557 1.85194,-6.29103 8.23016,-10.661138 14.69729,-10.731638 0.24035,-0.01013 0.47889,-0.01455 0.71624,-0.01344 z" />
    <path
       id="path20114"
       style="fill:#00b600;fill-opacity:1;stroke:#c70312;stroke-width:0;stroke-dasharray:none;stroke-opacity:1"
       d="m 127.39448,65.528645 a 18.939322,18.140194 0 0 0 -18.93941,18.13998 18.939322,18.140194 0 0 0 18.93941,18.139965 18.939322,18.140194 0 0 0 18.93942,-18.139965 18.939322,18.140194 0 0 0 -18.93942,-18.13998 z m 0.31265,3.18895 c 1.66141,0.008 3.25362,0.28879 4.83278,0.80874 2.59375,0.87105 5.02714,2.41684 6.88692,4.49068 3.0473,3.28561 4.31876,8.0411 3.43441,12.420946 -1.04166,5.55342 -5.59654,10.09959 -10.99933,11.54555 -5.82434,1.74118 -12.56398,-0.15554 -16.55506,-4.75527 -3.32912,-3.64773 -4.47698,-9.062366 -3.01325,-13.765566 1.85194,-6.29103 8.23016,-10.66114 14.69729,-10.73164 0.24035,-0.0101 0.47889,-0.0145 0.71624,-0.0134 z" />
    <path
       id="path20168"
       style="fill:#000000;fill-opacity:1;stroke:#c70312;stroke-width:0;stroke-dasharray:none;stroke-opacity:1"
       d="M 111.67225 83.604199 C 111.67395 83.50634 111.67529 83.408483 111.67897 83.310677 C 111.68475 83.157427 111.69258 83.004269 111.70326 82.851274 C 111.71394 82.698278 111.72744 82.545493 111.74305 82.392904 C 111.75866 82.240315 111.77674 82.088116 111.79731 81.936084 C 111.81788 81.784052 111.84049 81.632137 111.86604 81.480815 C 111.89159 81.329492 111.91972 81.178592 111.95027 81.028129 C 111.98083 80.877666 112.0139 80.727995 112.04949 80.578544 C 112.08508 80.429093 112.12356 80.279832 112.16421 80.131543 C 112.20102 79.997287 112.24003 79.863719 112.281 79.730534 C 111.14492 80.406516 109.92403 80.937156 108.65435 81.298397 A 18.939322 18.140194 0 0 0 108.50811 82.539148 A 18.939322 18.140194 0 0 0 108.45488 83.894621 A 18.939322 18.140194 0 0 0 108.48485 84.653748 A 18.939322 18.140194 0 0 0 111.67225 83.604199 z " />
    <path
       id="path22626"
       style="fill:#000000;fill-opacity:1;stroke:#c70312;stroke-width:0;stroke-dasharray:none;stroke-opacity:1"
       d="M 122.70879 69.626241 C 122.54738 69.675075 122.38651 69.725313 122.22665 69.779203 C 122.03461 69.843942 121.84364 69.91194 121.65407 69.983842 C 121.46451 70.055744 121.27607 70.131264 121.08925 70.210185 C 120.90243 70.289105 120.71701 70.371404 120.53321 70.457198 C 120.34941 70.542992 120.16751 70.63236 119.98699 70.724882 C 119.80648 70.817404 119.62754 70.913098 119.45059 71.012203 C 119.32769 71.081037 119.20683 71.15316 119.08575 71.22511 C 118.00539 74.788467 115.47802 77.828271 112.281 79.730534 C 112.24003 79.863719 112.20102 79.997287 112.16421 80.131543 C 112.12356 80.279832 112.08508 80.429093 112.04949 80.578544 C 112.0139 80.727995 111.98083 80.877666 111.95027 81.028129 C 111.91972 81.178592 111.89159 81.329492 111.86604 81.480815 C 111.84049 81.632137 111.81788 81.784052 111.79731 81.936084 C 111.77674 82.088116 111.75866 82.240315 111.74305 82.392904 C 111.72744 82.545493 111.71394 82.698278 111.70326 82.851274 C 111.69258 83.004269 111.68475 83.157427 111.67897 83.310677 C 111.67529 83.408483 111.67395 83.50634 111.67225 83.604199 A 18.939322 18.140194 0 0 0 122.70879 69.626241 z " />
    <path
       id="path22622"
       style="fill:#000000;fill-opacity:1;stroke:#c70312;stroke-width:0;stroke-dasharray:none;stroke-opacity:1"
       d="M 99.979944 81.498385 A 18.939322 18.140194 0 0 1 100.15874 82.403239 A 18.939322 18.140194 0 0 1 100.31739 83.751477 A 18.939322 18.140194 0 0 1 100.36028 84.84185 A 18.939322 18.140194 0 0 0 103.96626 85.186532 A 18.939322 18.140194 0 0 0 108.48485 84.653748 A 18.939322 18.140194 0 0 1 108.45488 83.894621 A 18.939322 18.140194 0 0 1 108.50811 82.539148 A 18.939322 18.140194 0 0 1 108.65435 81.298397 C 108.58074 81.319339 108.50762 81.341655 108.43369 81.361442 C 105.6912 82.181307 102.74581 82.194084 99.979944 81.498385 z " />
    <path
       id="path22637"
       style="fill:#000000;fill-opacity:1;stroke:#c70312;stroke-width:0;stroke-dasharray:none;stroke-opacity:1"
       d="m 96.503866,80.530384 c 0.0463,0.12572 0.0906,0.25181 0.13332,0.37878 0.0444,0.13183 0.0871,0.26433 0.12765,0.3974 0.0406,0.13306 0.0795,0.26682 0.11627,0.40101 0.0368,0.13419 0.0715,0.2689 0.10438,0.40411 0.0329,0.1352 0.064,0.2711 0.093,0.40721 0.029,0.1361 0.056,0.27238 0.0811,0.40927 0.0251,0.13689 0.0485,0.2743 0.0698,0.41186 0.0212,0.13757 0.0401,0.27529 0.0574,0.41342 0.0173,0.13812 0.0327,0.27638 0.046,0.41496 0.008,0.081 0.0137,0.16229 0.0202,0.24339 a 18.939322,18.140194 0 0 0 3.233394,0.88212 18.939322,18.140194 0 0 0 -0.0429,-1.09037 18.939322,18.140194 0 0 0 -0.15865,-1.34824 18.939322,18.140194 0 0 0 -0.17879,-0.90485 c -1.285684,-0.32339 -2.532454,-0.80011 -3.702104,-1.42007 z" />
    <path
       id="path22635"
       style="fill:#000000;fill-opacity:1;stroke:#c70312;stroke-width:0;stroke-dasharray:none;stroke-opacity:1"
       d="m 89.374591,72.308967 c -0.06679,-0.03598 -0.132753,-0.07348 -0.199988,-0.108521 -0.153323,-0.0799 -0.308054,-0.157074 -0.463538,-0.232027 -0.155483,-0.07495 -0.311779,-0.147625 -0.469222,-0.217558 -0.157443,-0.06993 -0.315706,-0.137215 -0.474906,-0.202055 -0.1592,-0.06484 -0.319319,-0.127392 -0.480074,-0.187068 -0.160756,-0.05968 -0.322616,-0.116609 -0.484725,-0.171049 -0.197395,-0.06499 -0.394817,-0.125992 -0.592729,-0.183452 -0.190343,-0.05526 -0.381037,-0.106858 -0.572058,-0.155029 a 18.939322,18.140194 0 0 0 11.715564,13.333553 c -0.0064,-0.08111 -0.01237,-0.162411 -0.02015,-0.243396 -0.01331,-0.138575 -0.02872,-0.276836 -0.04599,-0.414962 -0.01728,-0.138125 -0.03614,-0.275847 -0.05736,-0.413411 -0.02122,-0.137564 -0.04462,-0.274972 -0.06976,-0.411861 -0.02514,-0.13689 -0.05209,-0.273175 -0.08113,-0.409278 -0.02904,-0.136102 -0.0601,-0.272007 -0.09302,-0.40721 -0.03291,-0.135203 -0.06762,-0.269919 -0.104387,-0.40411 -0.03676,-0.13419 -0.07568,-0.267943 -0.116272,-0.401009 -0.04059,-0.133066 -0.08324,-0.265563 -0.127641,-0.397392 -0.04276,-0.12697 -0.08706,-0.253068 -0.133325,-0.378788 -1.657984,-0.878794 -3.160973,-2.045053 -4.399223,-3.472139 -1.201286,-1.316254 -2.117029,-2.863298 -2.730066,-4.523238 z" />
    <path
       id="path22633"
       style="fill:#000000;fill-opacity:1;stroke:#c70312;stroke-width:0;stroke-dasharray:none;stroke-opacity:1"
       d="M 88.290735 68.201005 A 18.939322 18.140194 0 0 0 87.013293 67.773124 A 18.939322 18.140194 0 0 0 85.645418 67.421724 A 18.939322 18.140194 0 0 0 85.037187 67.311654 A 18.939322 18.140194 0 0 0 85.411324 70.62618 C 85.602345 70.674351 85.793039 70.725947 85.983382 70.781209 C 86.181294 70.838669 86.378716 70.899667 86.576111 70.964661 C 86.73822 71.019101 86.90008 71.076033 87.060836 71.13571 C 87.221591 71.195386 87.38171 71.257938 87.54091 71.322778 C 87.70011 71.387618 87.858373 71.454901 88.015816 71.524833 C 88.173259 71.594766 88.329555 71.667438 88.485038 71.742391 C 88.640522 71.817344 88.795253 71.894516 88.948576 71.974418 C 89.015811 72.009457 89.081772 72.046958 89.148564 72.082939 C 88.688187 70.836363 88.399393 69.52642 88.290735 68.201005 z " />
    <path
       id="path22631"
       style="fill:#000000;fill-opacity:1;stroke:#c70312;stroke-width:0;stroke-dasharray:none;stroke-opacity:1"
       d="M 103.96626 48.906576 A 18.939322 18.140194 0 0 0 85.026851 67.046554 A 18.939322 18.140194 0 0 0 85.037187 67.311654 A 18.939322 18.140194 0 0 1 85.645418 67.421724 A 18.939322 18.140194 0 0 1 87.013293 67.773124 A 18.939322 18.140194 0 0 1 88.290735 68.201005 C 88.143106 66.400228 88.326471 64.572196 88.865377 62.840609 C 90.717311 56.549597 97.09556 52.179464 103.56267 52.108964 C 103.80302 52.098834 104.04156 52.094418 104.27891 52.095528 C 105.94029 52.103328 107.53253 52.384317 109.11169 52.904264 C 111.70541 53.775311 114.13885 55.321112 115.9986 57.394946 C 118.47571 60.065767 119.77975 63.708202 119.70587 67.330257 A 18.939322 18.140194 0 0 1 120.47533 67.00883 A 18.939322 18.140194 0 0 1 121.8122 66.560795 A 18.939322 18.140194 0 0 1 122.87622 66.287427 A 18.939322 18.140194 0 0 0 103.96626 48.906576 z " />
    <path
       id="path20266"
       style="fill:#0076ff;fill-opacity:1;stroke:#c70312;stroke-width:0;stroke-dasharray:none;stroke-opacity:1"
       d="m 61.932222,49.22644 a 18.939322,18.140194 0 0 0 -18.93941,18.13998 18.939322,18.140194 0 0 0 18.93941,18.13997 18.939322,18.140194 0 0 0 18.93942,-18.13997 18.939322,18.140194 0 0 0 -18.93942,-18.13998 z m 0.31265,3.18895 c 1.66141,0.008 3.25362,0.28879 4.83278,0.80874 2.59375,0.87105 5.02714,2.41684 6.88692,4.49068 3.0473,3.28561 4.31876,8.0411 3.43441,12.42095 -1.04166,5.55342 -5.59654,10.09959 -10.99933,11.54555 -5.82434,1.74118 -12.56398,-0.15554 -16.55506,-4.75527 -3.32912,-3.64773 -4.47698,-9.06237 -3.01325,-13.76557 1.85194,-6.29103 8.23016,-10.66114 14.69729,-10.73164 0.24035,-0.0101 0.47889,-0.0145 0.71624,-0.0134 z" />
    <path
       id="path20315"
       style="fill:#0076ff;fill-opacity:1;stroke:#c70312;stroke-width:0;stroke-dasharray:none;stroke-opacity:1"
       d="m 33.003805,157.42831 a 18.939322,18.140194 0 0 0 -18.93941,18.13998 18.939322,18.140194 0 0 0 18.93941,18.13997 18.939322,18.140194 0 0 0 18.93942,-18.13997 18.939322,18.140194 0 0 0 -18.93942,-18.13998 z m 0.31265,3.18895 c 1.66141,0.008 3.25362,0.28879 4.83278,0.80874 2.59375,0.87105 5.02714,2.41684 6.88692,4.49068 3.0473,3.28561 4.31876,8.0411 3.43441,12.42095 -1.04166,5.55342 -5.59654,10.09959 -10.99933,11.54555 -5.82434,1.74118 -12.56398,-0.15554 -16.55506,-4.75527 -3.32912,-3.64773 -4.47698,-9.06237 -3.01325,-13.76557 1.85194,-6.29103 8.23016,-10.66114 14.69729,-10.73164 0.24035,-0.0101 0.47889,-0.0145 0.71624,-0.0134 z" />
    <path
       id="path20317"
       style="fill:#ffe600;fill-opacity:1;stroke:#c70312;stroke-width:0;stroke-dasharray:none;stroke-opacity:1"
       d="m 70.882453,159.02656 a 18.939322,18.140194 0 0 0 -18.939413,18.13998 18.939322,18.140194 0 0 0 18.939413,18.13997 18.939322,18.140194 0 0 0 18.93942,-18.13997 18.939322,18.140194 0 0 0 -18.93942,-18.13998 z m 0.31265,3.18895 c 1.66141,0.008 3.25362,0.28879 4.83278,0.80874 2.59375,0.87105 5.02714,2.41684 6.88692,4.49068 3.0473,3.28561 4.31876,8.0411 3.43441,12.42095 -1.04166,5.55342 -5.59654,10.09959 -10.99933,11.54555 -5.82434,1.74118 -12.563983,-0.15554 -16.555063,-4.75527 -3.32912,-3.64773 -4.47698,-9.06237 -3.01325,-13.76557 1.85194,-6.29103 8.23016,-10.66114 14.697293,-10.73164 0.24035,-0.0101 0.47889,-0.0145 0.71624,-0.0134 z" />
    <path
       id="path22640"
       style="fill:#ffe600;fill-opacity:1;stroke:#c70312;stroke-width:0;stroke-dasharray:none;stroke-opacity:1"
       d="M 81.882995,67.41913 A 18.939322,18.140194 0 0 0 62.943585,85.5591 18.939322,18.140194 0 0 0 81.882995,103.69909 18.939322,18.140194 0 0 0 100.82241,85.5591 18.939322,18.140194 0 0 0 81.882995,67.41913 Z m 0.31265,3.18895 c 1.66141,0.008 3.25362,0.28878 4.83278,0.80873 2.59375,0.87105 5.02714,2.41684 6.88692,4.49068 3.0473,3.28561 4.31876,8.0411 3.43441,12.42094 -1.04166,5.55343 -5.59654,10.0996 -10.99933,11.54556 -5.82434,1.7412 -12.56398,-0.15554 -16.55506,-4.75527 -3.32912,-3.64773 -4.47698,-9.06237 -3.01325,-13.76557 1.85194,-6.29103 8.23016,-10.66113 14.69729,-10.73163 0.24035,-0.0101 0.47889,-0.0145 0.71624,-0.0134 z" />
    <path
       id="path23369"
       style="fill:#000000;fill-opacity:1;stroke:#c70312;stroke-width:0;stroke-dasharray:none;stroke-opacity:1"
       d="m 112.6007,117.92885 c -0.62103,0.36952 -1.26738,0.69537 -1.93321,0.9741 -0.0398,-0.002 -0.0796,-0.005 -0.11938,-0.008 -0.153,-0.0107 -0.30578,-0.0242 -0.45837,-0.0398 -0.15258,-0.0156 -0.30478,-0.0337 -0.45681,-0.0543 -0.15202,-0.0206 -0.30395,-0.0432 -0.45527,-0.0687 -0.15134,-0.0256 -0.30222,-0.0537 -0.45269,-0.0842 -0.15045,-0.0306 -0.30011,-0.0636 -0.44958,-0.0992 -0.14945,-0.0356 -0.29872,-0.0741 -0.44701,-0.11472 -0.13425,-0.0368 -0.26782,-0.0758 -0.40101,-0.11679 0.56005,0.94122 1.02001,1.94096 1.36685,2.97812 a 18.939322,18.140194 0 0 0 -0.0196,0.79736 18.939322,18.140194 0 0 0 0.0305,0.75913 18.939322,18.140194 0 0 0 2.34766,-0.71417 18.140194,18.939322 0 0 0 0.43822,0.006 18.140194,18.939322 0 0 0 0.75912,-0.03 18.140194,18.939322 0 0 0 -0.31832,-1.17668 c 0.009,-0.11535 0.0198,-0.23059 0.0315,-0.34571 0.0156,-0.15258 0.0337,-0.30478 0.0543,-0.45682 0.0206,-0.15203 0.0432,-0.30395 0.0687,-0.45527 0.0255,-0.15133 0.0532,-0.30223 0.0837,-0.45269 0.0306,-0.15046 0.0636,-0.30012 0.0992,-0.44958 0.0356,-0.14945 0.0741,-0.29871 0.11472,-0.447 0.0368,-0.13425 0.0758,-0.26782 0.11679,-0.40101 z" />
  </g>
</svg>
